Coordinates
version=1
nRows=8
nColumns=27
inDegrees=yes

Units are S.I. units (second, meters, Newtons, ...)
If the header above contains a line with 'inDegrees', this indicates whether rotational values are in degrees (yes) or radians (no).

endheader
time	pelvis_rotation	pelvis_tilt	pelvis_list	pelvis_tx	pelvis_ty	pelvis_tz	hip_flexion_r	hip_adduction_r	hip_rotation_r	knee_angle_r	knee_rotation_r	knee_adduction_r	knee_angle_r_beta	ankle_angle_r	subtalar_angle_r	mtp_angle_r	hip_flexion_l	hip_adduction_l	hip_rotation_l	knee_angle_l	knee_rotation_l	knee_adduction_l	knee_angle_l_beta	ankle_angle_l	subtalar_angle_l	mtp_angle_l
      3.94500000	      3.74507576	    -31.35899260	      4.42314583	      0.02580230	      0.63098109	     -1.15646195	     97.27132753	    -44.07659663	      1.36799257	     82.70114203	      0.00000000	      9.90599770	      1.44340722	     11.13529666	      0.00000000	      0.00000000	     92.90777673	    -30.54185756	      2.41080674	     75.19935371	      0.00000000	     -9.92055408	      1.31247632	      8.91256495	      0.00000000	      0.00000000
      3.95000000	      3.92644826	    -31.31299732	      3.99013490	      0.02601093	      0.62942035	     -1.15616502	     96.87404761	    -44.38627688	      0.72248018	     82.92373115	      0.00000000	      9.90688332	      1.44729214	     11.31551950	      0.00000000	      0.00000000	     93.52581986	    -30.37141257	      3.26375566	     75.54714879	      0.00000000	     -9.92091116	      1.31854649	      8.95053893	      0.00000000	      0.00000000
      3.95500000	      3.78310434	    -31.38217641	      4.43824897	      0.02607167	      0.62774310	     -1.15608249	     97.89063390	    -44.16881846	      1.81559562	     83.31375597	      0.00000000	      9.90711094	      1.45409935	     11.33094552	      0.00000000	      0.00000000	     93.44381397	    -30.63116748	      2.71247696	     75.77217438	      0.00000000	     -9.92164193	      1.32247392	      9.04274137	      0.00000000	      0.00000000
      3.96000000	      3.76562676	    -31.38384738	      4.44296786	      0.02622144	      0.62612948	     -1.15589335	     98.19534494	    -44.17071949	      2.05865049	     83.61818014	      0.00000000	      9.90757660	      1.45941256	     11.44557557	      0.00000000	      0.00000000	     93.68323514	    -30.71141458	      2.84109976	     76.05491553	      0.00000000	     -9.92218044	      1.32740869	      9.11113963	      0.00000000	      0.00000000
      3.96500000	      3.76377245	    -31.37331136	      4.43301085	      0.02638251	      0.62452635	     -1.15572284	     98.46220213	    -44.20001000	      2.26362828	     83.91667905	      0.00000000	      9.90809971	      1.46462235	     11.55403019	      0.00000000	      0.00000000	     93.92807502	    -30.76590120	      3.00424674	     76.34256864	      0.00000000	     -9.92263305	      1.33242918	      9.19138411	      0.00000000	      0.00000000
      3.97000000	      3.75268756	    -31.39798008	      4.44258077	      0.02650974	      0.62291277	     -1.15551453	     98.79862342	    -44.20056990	      2.51268726	     84.22357193	      0.00000000	      9.90850989	      1.46997864	     11.65871565	      0.00000000	      0.00000000	     94.19535242	    -30.83553236	      3.14290207	     76.62322898	      0.00000000	     -9.92315206	      1.33732763	      9.25226971	      0.00000000	      0.00000000
      3.97500000	      3.87355285	    -31.38310757	      4.43219686	      0.02666545	      0.62130465	     -1.15540227	     99.01935802	    -44.37838178	      2.63082802	     84.51514523	      0.00000000	      9.90915859	      1.47506755	     11.75877376	      0.00000000	      0.00000000	     94.48077235	    -30.73269658	      3.41154627	     76.90907297	      0.00000000	     -9.92339258	      1.34231655	      9.35695945	      0.00000000	      0.00000000
      3.98000000	      3.72960801	    -31.40332819	      4.44704329	      0.02681977	      0.61969794	     -1.15519538	     99.39915598	    -44.22839644	      2.97621448	     84.81765181	      0.00000000	      9.90940387	      1.48034729	     11.86459132	      0.00000000	      0.00000000	     94.68209256	    -30.94935155	      3.44495516	     77.18512966	      0.00000000	     -9.92404463	      1.34713465	      9.39762418	      0.00000000	      0.00000000
